<?xml version="1.0" standalone="no"?>
<!DOCTYPE svg PUBLIC "-//W3C//DTD SVG 20010904//EN"
 "http://www.w3.org/TR/2001/REC-SVG-20010904/DTD/svg10.dtd">
<svg version="1.0" xmlns="http://www.w3.org/2000/svg"
 width="250.000000pt" height="250.000000pt" viewBox="0 0 250.000000 250.000000"
 preserveAspectRatio="xMidYMid meet">
<metadata>
Created by potrace 1.14, written by Peter Selinger 2001-2017
</metadata>
<g transform="translate(0.000000,250.000000) scale(0.100000,-0.100000)"
fill="#000000" stroke="none">
<path d="M1237 2109 c-15 -12 -33 -22 -40 -23 -22 -3 -37 -17 -37 -35 0 -9
-20 -47 -45 -84 -25 -37 -45 -69 -45 -72 0 -19 -57 -113 -90 -148 -80 -85 -95
-97 -121 -97 -15 0 -32 -7 -39 -15 -7 -8 -18 -15 -25 -15 -17 0 -75 -73 -75
-94 0 -58 -65 -131 -95 -106 -8 7 -15 21 -15 31 0 19 -55 79 -72 79 -5 0 -27
-17 -48 -37 -31 -31 -38 -47 -43 -88 -9 -82 -18 -108 -50 -143 -30 -31 -32
-36 -34 -130 -1 -53 -3 -108 -5 -121 -3 -21 2 -26 32 -33 66 -15 167 -20 174
-9 4 6 9 32 12 58 7 54 32 113 54 124 8 5 36 17 61 28 44 19 49 20 95 5 27 -9
57 -25 66 -35 15 -18 15 -24 3 -67 -8 -26 -26 -56 -40 -67 -31 -26 -32 -45 -2
-46 82 -4 214 -9 282 -10 44 -1 91 -7 105 -12 14 -5 45 -9 70 -8 70 3 33 -13
-55 -24 -16 -2 -43 -6 -60 -10 -27 -5 -200 -39 -267 -51 -14 -3 -57 -14 -95
-25 -111 -33 -175 -45 -270 -54 -33 -2 -83 -9 -110 -14 -65 -14 -222 -26 -370
-30 -37 -1 -43 -4 -43 -23 0 -12 2 -19 6 -16 3 3 22 2 42 -3 110 -26 444 -28
562 -4 14 3 41 8 60 10 64 9 154 26 220 40 36 8 88 17 115 20 28 3 70 7 95 10
41 5 107 11 235 20 69 5 369 5 430 0 143 -11 183 -15 280 -31 11 -2 35 -5 53
-8 69 -10 258 -79 350 -128 28 -16 52 -24 52 -20 0 25 -315 215 -374 226 -6 2
-29 10 -51 20 -45 20 -147 52 -185 59 -14 2 9 5 50 6 77 1 128 18 171 57 27
24 25 76 -5 234 -14 69 -18 82 -38 117 -22 38 -104 123 -119 123 -4 0 -34 29
-66 66 -52 59 -58 70 -59 114 -1 27 -6 55 -10 62 -5 7 -10 22 -11 32 -2 11 -9
27 -17 35 -7 9 -20 37 -29 62 -21 55 -59 86 -118 94 -65 9 -81 21 -114 87 -42
86 -45 89 -80 82 -21 -4 -38 -18 -55 -45 -13 -21 -27 -39 -31 -39 -4 0 -10 14
-14 30 -4 17 -10 30 -15 30 -9 0 -25 37 -29 70 -2 16 -34 11 -64 -11z"/>
<path d="M1367 723 c-1 -1 -29 -4 -62 -6 -33 -3 -67 -7 -75 -11 -8 -3 -33 -7
-55 -10 -22 -3 -68 -14 -102 -25 -35 -10 -63 -17 -63 -15 0 3 -9 0 -21 -7 -12
-6 -37 -13 -57 -15 -21 -3 -46 -8 -57 -11 -11 -4 -22 -8 -25 -8 -3 -1 -52 -17
-110 -35 -116 -38 -115 -37 -185 -45 -27 -3 -70 -8 -95 -12 -25 -4 -67 -6 -95
-5 -27 2 -95 4 -150 6 -55 1 -110 6 -122 10 -13 4 -23 5 -23 2 0 -3 17 -10 38
-15 109 -29 175 -35 382 -36 188 0 271 6 348 25 23 5 58 13 78 16 20 3 46 8
58 10 11 3 41 7 66 9 25 3 72 10 105 17 73 14 446 19 530 7 33 -4 83 -11 110
-14 75 -9 114 -17 190 -39 78 -22 193 -70 214 -88 10 -9 28 -19 40 -23 12 -3
35 -18 53 -33 l32 -27 -18 27 c-43 66 -277 198 -491 276 -130 48 -161 56 -260
67 -54 7 -174 12 -178 8z"/>
<path d="M745 340 c3 -5 8 -10 11 -10 2 0 4 5 4 10 0 6 -5 10 -11 10 -5 0 -7
-4 -4 -10z"/>
</g>
</svg>
